<?xml version="1.0" encoding="UTF-8"?>
<svg id="Layer_1" data-name="Layer 1" xmlns="http://www.w3.org/2000/svg" viewBox="0 0 1361.01 312.3">
  <defs>
    <style>
      .cls-1 {
        stroke-width: 4px;
      }

      .cls-1, .cls-2 {
        fill: #bf9e6d;
        stroke: #bf9e6d;
        stroke-miterlimit: 10;
      }
    </style>
  </defs>
  <g>
    <path class="cls-2" d="M405.84,92.15l-3.61,30.31h-70.72v-1.15l11.83-1.15V25.18l-11.83-1.15v-1.15h70.87l2.02,27.13-1.44.14-8.08-20.21c-.87-2.21-1.8-3.66-2.81-4.33-1.01-.67-2.67-1.01-4.98-1.01h-32.62v44.31h21.36c2.31,0,3.94-.38,4.91-1.15.96-.77,1.63-2.26,2.02-4.47l2.45-11.69h1.73v36.95h-1.73l-2.45-11.69c-.39-2.21-1.06-3.7-2.02-4.47-.96-.77-2.6-1.15-4.91-1.15h-21.36v49.51h32.33c2.31,0,3.99-.36,5.05-1.08,1.06-.72,2.02-2.14,2.89-4.26l9.53-23.38,1.59.14Z"/>
    <path class="cls-2" d="M528.96,121.31v1.15h-36.8v-1.15l12.56-1.15-30.45-44.17-29.3,39.55c-1.15,1.54-1.73,2.65-1.73,3.32,0,.48.31.84.94,1.08.62.24,1.66.46,3.1.65l8.23.72v1.15h-29.44v-1.15l7.36-.58c2.31-.19,4.09-.65,5.34-1.37,1.25-.72,2.55-2,3.9-3.82l30.45-41.28-33.77-49.07-11.84-1.15v-1.15h36.8v1.15l-12.56,1.15,29.01,42.15,27.86-37.53c1.15-1.63,1.73-2.74,1.73-3.32,0-.48-.31-.84-.94-1.08-.63-.24-1.66-.46-3.1-.65l-8.23-.72v-1.15h29.44v1.15l-7.36.58c-2.31.19-4.09.65-5.34,1.37-1.25.72-2.55,2-3.9,3.82l-29.01,39.26,35.22,51.09,11.83,1.15Z"/>
    <path class="cls-2" d="M569.37,79.16v40.99l14.14,1.15v1.15h-37.09v-1.15l11.83-1.15V25.18l-11.83-1.15v-1.15h36.52c11.26,0,19.89,2.41,25.91,7.22,6.01,4.81,9.02,11.6,9.02,20.35,0,9.33-2.98,16.45-8.95,21.36-5.97,4.91-14.63,7.36-25.98,7.36h-13.57ZM569.37,24.6v52.83h13.13c7.79,0,13.47-2.21,17.03-6.64,3.56-4.42,5.34-11.45,5.34-21.07,0-7.99-1.61-14.17-4.84-18.55-3.22-4.38-9.07-6.57-17.54-6.57h-13.13Z"/>
    <path class="cls-2" d="M651.78,25.18l-11.83-1.15v-1.15h35.51v1.15l-12.56,1.15v95.55h31.9c2.31,0,3.99-.36,5.05-1.08,1.06-.72,2.02-2.14,2.89-4.26l9.81-24.68,1.73.29-3.61,31.46h-70.72v-1.15l11.83-1.15V25.18Z"/>
    <path class="cls-2" d="M805.85,27.49c6.98,4.62,12.46,10.9,16.45,18.83,3.99,7.94,5.99,16.72,5.99,26.34s-2,18.4-5.99,26.34c-3.99,7.94-9.48,14.22-16.45,18.83-6.98,4.62-14.65,6.93-23.02,6.93s-16.05-2.31-23.02-6.93c-6.98-4.62-12.46-10.9-16.45-18.83-3.99-7.94-5.99-16.72-5.99-26.34s2-18.4,5.99-26.34c3.99-7.94,9.48-14.22,16.45-18.83,6.98-4.62,14.65-6.93,23.02-6.93s16.04,2.31,23.02,6.93ZM759.45,109.83c5.48,8.71,13.28,13.06,23.38,13.06s17.9-4.35,23.38-13.06c5.48-8.71,8.23-21.09,8.23-37.17s-2.74-28.48-8.23-37.24c-5.49-8.75-13.28-13.13-23.38-13.13s-17.9,4.38-23.38,13.13c-5.48,8.76-8.23,21.17-8.23,37.24s2.74,28.46,8.23,37.17Z"/>
    <path class="cls-2" d="M939.86,121.31v1.15h-14.87c-2.31,0-4.04-.34-5.2-1.01-1.16-.67-2.36-1.97-3.61-3.9l-22.08-35.65c-1.35-2.21-2.48-3.58-3.39-4.11-.92-.53-2.53-.79-4.83-.79h-10.68v43.16l12.56,1.15v1.15h-35.5v-1.15l11.83-1.15V25.18l-11.83-1.15v-1.15h36.52c11.35,0,20.01,2.29,25.98,6.86,5.96,4.57,8.95,11.19,8.95,19.85,0,6.74-1.83,12.27-5.48,16.6-3.66,4.33-8.95,7.31-15.88,8.95h.14l26.41,41.28c1.25,1.93,2.48,3.23,3.68,3.9,1.2.67,2.96,1.01,5.27,1.01h2.02ZM875.2,24.6v50.23h13.13c7.7,0,13.4-2.04,17.1-6.13,3.7-4.09,5.56-10.37,5.56-18.84s-1.88-14.91-5.63-19.05c-3.75-4.14-9.43-6.21-17.03-6.21h-13.13Z"/>
    <path class="cls-2" d="M1026.75,92.15l-3.61,30.31h-70.72v-1.15l11.83-1.15V25.18l-11.83-1.15v-1.15h70.87l2.02,27.13-1.44.14-8.08-20.21c-.87-2.21-1.8-3.66-2.81-4.33-1.01-.67-2.67-1.01-4.98-1.01h-32.62v44.31h21.36c2.31,0,3.94-.38,4.91-1.15.96-.77,1.63-2.26,2.02-4.47l2.45-11.69h1.73v36.95h-1.73l-2.45-11.69c-.39-2.21-1.06-3.7-2.02-4.47-.96-.77-2.6-1.15-4.91-1.15h-21.36v49.51h32.33c2.31,0,3.99-.36,5.05-1.08,1.06-.72,2.02-2.14,2.89-4.26l9.53-23.38,1.59.14Z"/>
    <path class="cls-2" d="M71.08,180.22v62l8.2.75v.75h-23.18v-.75l7.73-.75v-57.38h-.38l-22.71,60.4h-.94l-25.35-60.49h-.38v53.24c0,1.51.19,2.56.57,3.16.38.6,1.13.96,2.26,1.08l6.69.75v.75H2.95v-.75l6.78-.75c1.13-.12,1.88-.49,2.26-1.08.38-.6.57-1.65.57-3.16v-56.54c-.44-.75-.99-1.27-1.65-1.55-.66-.28-1.62-.42-2.87-.42H3.7v-.75h16.11l23.18,55.31h.38l20.73-55.31h15.17v.75l-8.2.75Z"/>
    <path class="cls-2" d="M139.15,181.73c4.55,3.02,8.13,7.11,10.74,12.3,2.61,5.18,3.91,10.92,3.91,17.2s-1.3,12.01-3.91,17.2c-2.61,5.18-6.19,9.28-10.74,12.3-4.56,3.02-9.56,4.52-15.03,4.52s-10.48-1.51-15.03-4.52c-4.56-3.01-8.14-7.11-10.74-12.3-2.61-5.18-3.91-10.91-3.91-17.2s1.3-12.01,3.91-17.2c2.61-5.18,6.19-9.28,10.74-12.3,4.55-3.01,9.56-4.52,15.03-4.52s10.47,1.51,15.03,4.52ZM108.86,235.48c3.58,5.69,8.67,8.53,15.26,8.53s11.68-2.84,15.26-8.53c3.58-5.68,5.37-13.77,5.37-24.26s-1.79-18.59-5.37-24.31c-3.58-5.72-8.67-8.57-15.26-8.57s-11.68,2.86-15.26,8.57c-3.58,5.72-5.37,13.82-5.37,24.31s1.79,18.58,5.37,24.26Z"/>
    <path class="cls-2" d="M226.64,242.97v.75h-9.71c-1.51,0-2.64-.22-3.39-.66-.75-.44-1.54-1.29-2.36-2.54l-14.42-23.27c-.88-1.44-1.62-2.34-2.21-2.69-.6-.34-1.65-.52-3.16-.52h-6.97v28.17l8.2.75v.75h-23.18v-.75l7.73-.75v-62l-7.73-.75v-.75h23.84c7.41,0,13.06,1.49,16.96,4.48,3.89,2.98,5.84,7.3,5.84,12.96,0,4.4-1.19,8.01-3.58,10.84-2.39,2.83-5.84,4.77-10.37,5.84h.09l17.24,26.95c.82,1.26,1.62,2.1,2.4,2.54.78.44,1.93.66,3.44.66h1.32ZM184.43,179.84v32.79h8.57c5.02,0,8.75-1.33,11.17-4,2.42-2.67,3.63-6.77,3.63-12.3s-1.23-9.74-3.67-12.44c-2.45-2.7-6.16-4.05-11.12-4.05h-8.57Z"/>
    <path class="cls-2" d="M283.37,223.94l-2.36,19.79h-46.17v-.75l7.73-.75v-62l-7.73-.75v-.75h46.27l1.32,17.71-.94.09-5.28-13.19c-.57-1.44-1.18-2.39-1.84-2.83-.66-.44-1.74-.66-3.25-.66h-21.29v28.93h13.95c1.51,0,2.58-.25,3.2-.75.63-.5,1.07-1.47,1.32-2.92l1.6-7.63h1.13v24.12h-1.13l-1.6-7.63c-.25-1.44-.69-2.42-1.32-2.92-.63-.5-1.7-.75-3.2-.75h-13.95v32.32h21.11c1.51,0,2.61-.24,3.3-.71.69-.47,1.32-1.4,1.88-2.78l6.22-15.26,1.04.09Z"/>
    <path class="cls-2" d="M376.22,181.73c4.55,3.02,8.13,7.11,10.74,12.3,2.61,5.18,3.91,10.92,3.91,17.2s-1.3,12.01-3.91,17.2c-2.61,5.18-6.19,9.28-10.74,12.3-4.56,3.02-9.56,4.52-15.03,4.52s-10.48-1.51-15.03-4.52c-4.56-3.01-8.14-7.11-10.74-12.3-2.61-5.18-3.91-10.91-3.91-17.2s1.3-12.01,3.91-17.2c2.61-5.18,6.19-9.28,10.74-12.3,4.55-3.01,9.56-4.52,15.03-4.52s10.47,1.51,15.03,4.52ZM345.93,235.48c3.58,5.69,8.67,8.53,15.26,8.53s11.68-2.84,15.26-8.53c3.58-5.68,5.37-13.77,5.37-24.26s-1.79-18.59-5.37-24.31c-3.58-5.72-8.67-8.57-15.26-8.57s-11.68,2.86-15.26,8.57c-3.58,5.72-5.37,13.82-5.37,24.31s1.79,18.58,5.37,24.26Z"/>
    <path class="cls-2" d="M452.12,197.46l-.75.09-5.65-14.23c-.57-1.44-1.18-2.39-1.84-2.83-.66-.44-1.74-.66-3.25-.66h-19.13v28.93h13.66c1.51,0,2.58-.25,3.2-.75.63-.5,1.07-1.47,1.32-2.92l1.6-7.63h1.13v24.12h-1.13l-1.6-7.63c-.25-1.44-.69-2.42-1.32-2.92-.63-.5-1.7-.75-3.2-.75h-13.66v31.94l9.23.75v.75h-24.22v-.75l7.73-.75v-62l-7.73-.75v-.75h44.1l1.51,18.75Z"/>
    <path class="cls-2" d="M523.54,278.02v-100.17l-11.83-1.15v-1.16h34.78v1.16l-11.84,1.15v89.05c0,6.26-.36,11.19-1.08,14.79-.72,3.61-1.95,6.66-3.68,9.17-1.93,2.79-4.47,4.98-7.65,6.57-3.18,1.59-6.54,2.38-10.1,2.38-4.52,0-8.27-1.06-11.26-3.18-2.98-2.12-4.47-4.76-4.47-7.94,0-1.93.55-3.46,1.66-4.62,1.11-1.15,2.58-1.73,4.4-1.73,1.92,0,3.41.58,4.47,1.73,1.06,1.16,1.59,2.74,1.59,4.76l-.14,4.19c0,3.37,1.64,5.05,4.91,5.05,3.08,0,5.56-1.83,7.43-5.48,1.88-3.66,2.81-8.52,2.81-14.58Z"/>
    <path class="cls-2" d="M643.48,244.83l-3.61,30.31h-70.72v-1.15l11.83-1.16v-94.97l-11.83-1.15v-1.16h70.87l2.02,27.13-1.44.14-8.08-20.21c-.87-2.21-1.8-3.66-2.81-4.33-1.01-.67-2.67-1.01-4.98-1.01h-32.62v44.31h21.36c2.31,0,3.94-.38,4.91-1.15.96-.77,1.63-2.26,2.02-4.47l2.45-11.69h1.73v36.95h-1.73l-2.45-11.69c-.39-2.21-1.06-3.7-2.02-4.47-.96-.77-2.6-1.15-4.91-1.15h-21.36v49.5h32.33c2.31,0,3.99-.36,5.05-1.08,1.06-.72,2.02-2.14,2.89-4.26l9.53-23.38,1.59.14Z"/>
    <path class="cls-2" d="M739.17,204.27l-1.16.14-8.66-21.79c-.87-2.21-1.8-3.66-2.81-4.33-1.01-.67-2.67-1.01-4.98-1.01h-29.3v44.31h20.93c2.31,0,3.94-.38,4.91-1.15.96-.77,1.64-2.26,2.02-4.47l2.45-11.69h1.73v36.95h-1.73l-2.45-11.69c-.39-2.21-1.06-3.7-2.02-4.47-.96-.77-2.6-1.15-4.91-1.15h-20.93v48.93l14.14,1.16v1.15h-37.09v-1.15l11.83-1.16v-94.97l-11.83-1.15v-1.16h67.55l2.31,28.72Z"/>
    <path class="cls-2" d="M830.67,204.27l-1.16.14-8.66-21.79c-.87-2.21-1.8-3.66-2.81-4.33-1.01-.67-2.67-1.01-4.98-1.01h-29.3v44.31h20.93c2.31,0,3.94-.38,4.91-1.15.96-.77,1.64-2.26,2.02-4.47l2.45-11.69h1.73v36.95h-1.73l-2.45-11.69c-.39-2.21-1.06-3.7-2.02-4.47-.96-.77-2.6-1.15-4.91-1.15h-20.93v48.93l14.14,1.16v1.15h-37.09v-1.15l11.83-1.16v-94.97l-11.83-1.15v-1.16h67.55l2.31,28.72Z"/>
    <path class="cls-2" d="M926.65,244.83l-3.61,30.31h-70.72v-1.15l11.83-1.16v-94.97l-11.83-1.15v-1.16h70.87l2.02,27.13-1.44.14-8.08-20.21c-.87-2.21-1.8-3.66-2.81-4.33-1.01-.67-2.67-1.01-4.98-1.01h-32.62v44.31h21.36c2.31,0,3.94-.38,4.91-1.15.96-.77,1.63-2.26,2.02-4.47l2.45-11.69h1.73v36.95h-1.73l-2.45-11.69c-.39-2.21-1.06-3.7-2.02-4.47-.96-.77-2.6-1.15-4.91-1.15h-21.36v49.5h32.33c2.31,0,3.99-.36,5.05-1.08,1.06-.72,2.02-2.14,2.89-4.26l9.53-23.38,1.59.14Z"/>
    <path class="cls-2" d="M1040.09,273.98v1.15h-14.87c-2.31,0-4.04-.34-5.2-1.01-1.16-.67-2.36-1.97-3.61-3.9l-22.08-35.65c-1.35-2.21-2.48-3.58-3.39-4.11-.92-.53-2.53-.79-4.83-.79h-10.68v43.15l12.56,1.16v1.15h-35.5v-1.15l11.83-1.16v-94.97l-11.83-1.15v-1.16h36.52c11.35,0,20.01,2.29,25.98,6.86,5.96,4.57,8.95,11.19,8.95,19.85,0,6.74-1.83,12.27-5.48,16.6-3.66,4.33-8.95,7.31-15.88,8.95h.14l26.41,41.28c1.25,1.93,2.48,3.22,3.68,3.9,1.2.67,2.96,1.01,5.27,1.01h2.02ZM975.43,177.28v50.23h13.13c7.7,0,13.4-2.04,17.1-6.13,3.7-4.09,5.56-10.37,5.56-18.83s-1.88-14.91-5.63-19.05c-3.75-4.14-9.43-6.21-17.03-6.21h-13.13Z"/>
    <path class="cls-2" d="M1086.71,277.45c-4.52,0-8.9-.7-13.13-2.09-4.24-1.39-7.84-3.34-10.83-5.85l-3.03,7.94h-1.88l-1.88-34.5,1.3-.29c1.44,6.54,2.91,11.64,4.4,15.3,1.49,3.66,3.44,6.83,5.85,9.53,4.91,5.48,11.4,8.23,19.48,8.23,6.93,0,12.34-1.8,16.24-5.41,3.9-3.61,5.85-8.49,5.85-14.65,0-4.33-1.04-7.99-3.1-10.97-2.07-2.98-4.88-5.53-8.44-7.65-3.56-2.12-8.57-4.57-15.01-7.36-5.29-2.31-9.72-4.59-13.28-6.86-3.56-2.26-6.52-5.2-8.88-8.8-2.36-3.61-3.54-8.01-3.54-13.21s1.27-10.03,3.82-14.22c2.55-4.19,6.06-7.46,10.54-9.81,4.47-2.36,9.55-3.54,15.23-3.54,3.94,0,7.62.67,11.04,2.02,3.41,1.35,7.09,3.56,11.04,6.64l3.46-6.93h1.88l1.44,31.46-1.44.43c-1.54-6.45-3.51-12.12-5.92-17.03-4.81-9.91-12.17-14.87-22.08-14.87-5.97,0-10.73,1.71-14.29,5.12-3.56,3.42-5.34,8.06-5.34,13.93,0,4.24.99,7.79,2.96,10.68,1.97,2.89,4.71,5.39,8.23,7.5,3.51,2.12,8.49,4.67,14.94,7.65,5.77,2.6,10.42,5.05,13.93,7.36,3.51,2.31,6.35,5.17,8.52,8.59,2.16,3.42,3.25,7.63,3.25,12.63,0,5.58-1.35,10.56-4.04,14.94-2.7,4.38-6.42,7.82-11.19,10.32-4.76,2.5-10.13,3.75-16.09,3.75Z"/>
    <path class="cls-2" d="M1213.94,180.17c6.98,4.62,12.46,10.9,16.45,18.83,3.99,7.94,5.99,16.72,5.99,26.34s-2,18.4-5.99,26.34c-3.99,7.94-9.48,14.22-16.45,18.84-6.98,4.62-14.65,6.93-23.02,6.93s-16.05-2.31-23.02-6.93c-6.98-4.62-12.46-10.9-16.45-18.84-3.99-7.94-5.99-16.72-5.99-26.34s2-18.4,5.99-26.34c3.99-7.94,9.48-14.22,16.45-18.83,6.98-4.62,14.65-6.93,23.02-6.93s16.04,2.31,23.02,6.93ZM1167.54,262.51c5.48,8.71,13.28,13.06,23.38,13.06s17.9-4.35,23.38-13.06c5.48-8.71,8.23-21.09,8.23-37.17s-2.74-28.48-8.23-37.24c-5.49-8.75-13.28-13.13-23.38-13.13s-17.9,4.38-23.38,13.13c-5.48,8.76-8.23,21.17-8.23,37.24s2.74,28.46,8.23,37.17Z"/>
    <path class="cls-2" d="M1358.2,175.55v1.16l-10.39,1.15c-2.31.29-3.85.87-4.62,1.73-.77.87-1.15,2.45-1.15,4.76v93.09h-1.44l-64.8-91.94h-.58v80.83c0,2.31.29,3.92.87,4.83.58.92,1.73,1.47,3.46,1.66l10.25,1.16v1.15h-31.61v-1.15l10.39-1.16c1.73-.19,2.89-.74,3.46-1.66.58-.91.87-2.53.87-4.83v-84l-.58-.87c-1.35-1.92-2.62-3.2-3.83-3.82-1.2-.62-2.96-.94-5.27-.94h-2.45v-1.16h21.51l56.87,79.67h.58v-70.87c0-2.31-.29-3.94-.87-4.91-.58-.96-1.73-1.49-3.46-1.59l-11.69-1.15v-1.16h34.5Z"/>
  </g>
  <line class="cls-1" x1="431.47" y1="273.4" x2=".48" y2="273.4"/>
</svg>