<?xml version="1.0" encoding="UTF-8"?>
<svg id="Layer_1" xmlns="http://www.w3.org/2000/svg" version="1.1" viewBox="0 0 64.5 64.5">
  <!-- Generator: Adobe Illustrator 29.5.1, SVG Export Plug-In . SVG Version: 2.1.0 Build 141)  -->
  <defs>
    <style>
      .st0 {
        fill: #002a38;
      }

      .st1 {
        fill: #fff;
      }
    </style>
  </defs>
  <circle class="st1" cx="32.2" cy="32.2" r="32.2"/>
  <g>
    <path class="st0" d="M51.4,27.7c.6,0,1-.5,1-1v-2h1.2v-2.8l-21.5-14.2-21.5,14.1v2.9h1.3v2c0,.6.5,1,1,1h1.2v18.3h-1.2c-.6,0-1,.5-1,1v1.1c-.7,0-1.3.6-1.3,1.4s.6,1.4,1.4,1.4h40.2c.8,0,1.4-.6,1.4-1.4s-.5-1.3-1.2-1.4v-1.1c0-.6-.5-1-1-1h-1.2v-18.3h1.2ZM45.7,46.1h-1.2c-.6,0-1,.5-1,1v1.1h-22.4v-1.1c0-.6-.5-1-1-1h-1.2v-18.3h1.2c.6,0,1-.5,1-1v-2h22.4v2c0,.6.5,1,1,1h1.2v18.3Z"/>
    <path class="st0" d="M38.3,39.4c0-1.8-.9-3.5-5-4.4v-4c1.3.3,2,.9,2.2,1.7h2.4c-.2-1.6-1.5-3.4-4.6-3.7v-1.7h-1.5v1.7c-6.3.6-6.6,7.1,0,8.1v4.5c-1.4-.3-2.4-.9-2.8-2.2h-2.4c.4,2.4,2.3,3.9,5.2,4.2v2h1.5v-2c3.2-.3,5-1.9,5-4.2ZM29.4,32.6c0-.9.5-1.8,2.4-1.9v3.8c-1.8-.5-2.4-1-2.4-2ZM33.3,41.7v-4.2c3.6.8,3.1,3.9,0,4.2Z"/>
  </g>
</svg>