<?xml version="1.0" encoding="UTF-8"?>
<svg id="Layer_1" data-name="Layer 1" xmlns="http://www.w3.org/2000/svg" viewBox="0 0 64.46 64.46">
  <defs>
    <style>
      .cls-1 {
        fill: #002a38;
      }

      .cls-2 {
        fill: #fff;
      }
    </style>
  </defs>
  <circle class="cls-2" cx="32.23" cy="32.23" r="32.23"/>
  <g>
    <path class="cls-1" d="M49.55,47.25H16.02c-.83,0-1.51.66-1.51,1.46v4.16h36.55v-4.16c0-.8-.68-1.46-1.51-1.46Z"/>
    <path class="cls-1" d="M45.49,16.68h-.01s.01-.08.01-.13c0-1.21-1.01-2.19-2.26-2.19-.93,0-1.73.55-2.08,1.33v-.19c0-4.02-3.4-7.31-7.55-7.31h-2.04c-4.15,0-7.55,3.29-7.55,7.31v.19c-.34-.78-1.14-1.33-2.08-1.33-1.25,0-2.26.98-2.26,2.19,0,.04.01.08.01.13h-.01v29.35h25.8v-29.35ZM28.88,17.21h3.16v-3.01c0-.4.34-.73.75-.73s.75.33.75.73v3.01h3.16c.41,0,.75.33.75.73s-.34.73-.75.73h-3.16v8.05c0,.4-.34.73-.75.73s-.75-.33-.75-.73v-8.05h-3.16c-.41,0-.75-.33-.75-.73s.34-.73.75-.73ZM38.1,40.07h-11.05c-.35,0-.63-.27-.63-.61s.28-.61.63-.61h11.05c.35,0,.63.27.63.61s-.28.61-.63.61ZM38.1,37.78h-11.05c-.35,0-.63-.27-.63-.61s.28-.61.63-.61h11.05c.35,0,.63.27.63.61s-.28.61-.63.61ZM38.1,35.48h-11.05c-.35,0-.63-.27-.63-.61s.28-.61.63-.61h11.05c.35,0,.63.27.63.61s-.28.61-.63.61Z"/>
  </g>
</svg>