<?xml version="1.0" encoding="UTF-8"?>
<svg id="Layer_1" data-name="Layer 1" xmlns="http://www.w3.org/2000/svg" viewBox="0 0 64.46 64.46">
  <defs>
    <style>
      .cls-1 {
        fill: #002a38;
      }

      .cls-2 {
        fill: #5b879e;
      }
    </style>
  </defs>
  <circle class="cls-2" cx="32.23" cy="32.23" r="32.23"/>
  <g>
    <path class="cls-1" d="M23.58,26.92c.09,1.89,2.64,3.47,6.11,3.96-.39.74-.63,1.67-.63,2.69h5.82c0-1.02-.24-1.95-.63-2.69,3.47-.49,6.02-2.07,6.11-3.96.39-.03.7-.35.7-.75s-.34-.75-.75-.75h-16.69c-.41,0-.75.34-.75.75s.31.73.7.75Z"/>
    <path class="cls-1" d="M20.66,36.15c.12,2.59,3.67,4.75,8.46,5.37-.47.91-.75,2.04-.75,3.28h7.21c0-1.24-.28-2.37-.75-3.28,4.79-.62,8.34-2.78,8.46-5.37.53-.04.95-.48.95-1.01s-.46-1.02-1.02-1.02h-22.49c-.56,0-1.02.46-1.02,1.02s.42.98.95,1.01Z"/>
    <path class="cls-1" d="M10.51,45.33c0,5.44,2.91,5.66,2.91,5.66h36.86c2.86,0,3.15-5.66,3.15-5.66H10.51Z"/>
    <path class="cls-1" d="M32.54,21.5c-.1-.03-.19-.05-.27-.05v-.25c.41-.14.71-.53.71-.99,0-.58-.47-1.04-1.04-1.04s-1.04.47-1.04,1.04c0,.46.3.85.71.99v.21c-.05.02-.11.04-.16.09-.31.24-1.32,3.46-1.32,3.46h3.64s-.88-3.35-1.21-3.46Z"/>
    <rect class="cls-1" x="31.61" y="18" width=".65" height=".78"/>
    <path class="cls-1" d="M32.25,15.38l.1-.07s.09-.22.22-.45l-.34-.2h.02v-.78h-.65v.78h.02l-.34.2c.13.23.22.44.22.45l.11-.04v.77h.65v-.66ZM31.95,14.67s-.01.02-.02.03c0-.01-.01-.02-.02-.03h.03ZM31.93,15.14l.13.05v.06h-.42l.29-.12Z"/>
    <path class="cls-1" d="M28.81,8.59v-.65c-.3,0-.59.03-.85.1l.16.63c.21-.05.45-.08.69-.08Z"/>
    <path class="cls-1" d="M31.49,10.64l.63-.16c-.07-.28-.17-.55-.3-.8l-.58.29c.1.2.19.43.25.67Z"/>
    <path class="cls-1" d="M30.96,9.53l.51-.4c-.18-.23-.39-.44-.63-.61l-.38.53c.18.13.35.29.49.47Z"/>
    <path class="cls-1" d="M30.27,8.21c-.26-.11-.53-.18-.83-.23l-.09.64c.24.04.47.1.67.18l.25-.6Z"/>
    <rect class="cls-1" x="31.61" y="16.63" width=".65" height=".78"/>
    <path class="cls-1" d="M27.64,8.85l-.3-.57c-.26.14-.5.32-.7.55l.48.44c.15-.17.33-.31.52-.41Z"/>
    <path class="cls-1" d="M32.25,11.92v-.42c0-.13,0-.26-.02-.4l-.65.07c.01.11.02.23.02.33v.42h.65Z"/>
    <rect class="cls-1" x="25.69" y="14.93" width=".65" height=".78"/>
    <rect class="cls-1" x="25.69" y="16.3" width=".65" height=".78"/>
    <rect class="cls-1" x="25.69" y="17.67" width=".65" height=".78"/>
    <rect class="cls-1" x="25.69" y="20.42" width=".65" height=".78"/>
    <rect class="cls-1" x="25.69" y="21.79" width=".65" height=".78"/>
    <rect class="cls-1" x="25.69" y="19.04" width=".65" height=".78"/>
    <path class="cls-1" d="M26.43,10.87l-.64-.11c-.04.26-.07.53-.09.82l.65.03c.01-.26.04-.51.08-.74Z"/>
    <path class="cls-1" d="M26.82,9.68l-.57-.32c-.13.23-.24.5-.33.79l.62.19c.07-.24.16-.46.27-.66Z"/>
    <rect class="cls-1" x="25.69" y="12.18" width=".65" height=".79"/>
    <rect class="cls-1" x="25.69" y="13.55" width=".65" height=".78"/>
    <rect class="cls-1" x="25.69" y="23.13" width=".65" height=".39"/>
    <path class="cls-1" d="M31.61,13.02v.28h.65v-.28c.08-.11.24-.32.46-.54l-.46-.45c-.12.13-.23.25-.32.35-.09-.11-.19-.23-.32-.35l-.46.45c.22.22.37.42.46.54Z"/>
    <path class="cls-1" d="M28.8,11.3l.29.58c.2-.1.4-.15.61-.16l-.03-.65c-.3.01-.6.09-.88.23Z"/>
    <rect class="cls-1" x="27.34" y="18.53" width=".65" height=".78"/>
    <rect class="cls-1" x="27.34" y="15.8" width=".65" height=".78"/>
    <rect class="cls-1" x="27.34" y="19.89" width=".65" height=".78"/>
    <path class="cls-1" d="M30.75,12.12l.39-.52c-.26-.2-.51-.34-.77-.43l-.21.61c.19.07.39.18.59.33Z"/>
    <rect class="cls-1" x="27.34" y="14.43" width=".65" height=".78"/>
    <path class="cls-1" d="M28.09,13.17l-.62-.18c-.08.28-.12.56-.12.86h.65c0-.23.04-.46.1-.67Z"/>
    <rect class="cls-1" x="27.34" y="17.16" width=".65" height=".78"/>
    <path class="cls-1" d="M28.69,12.17l-.44-.48c-.21.2-.39.43-.54.69l.57.31c.11-.2.25-.38.41-.53Z"/>
    <rect class="cls-1" x="27.34" y="22.63" width=".65" height=".78"/>
    <rect class="cls-1" x="27.34" y="21.26" width=".65" height=".78"/>
    <rect class="cls-1" x="29.47" y="17.17" width=".65" height=".78"/>
    <rect class="cls-1" x="29.47" y="19.9" width=".65" height=".78"/>
    <rect class="cls-1" x="29.47" y="18.53" width=".65" height=".78"/>
    <rect class="cls-1" x="29.47" y="21.26" width=".65" height=".78"/>
    <path class="cls-1" d="M30.79,13.68c-.14,0-.28.04-.42.11l.31.57s.07-.03.11-.03h0s.11.03.2.13l.46-.45c-.21-.22-.44-.33-.67-.33h0Z"/>
    <path class="cls-1" d="M30.12,15.94s0-.08,0-.13l-.65-.02s0,.1,0,.15v.64h.65v-.64Z"/>
    <path class="cls-1" d="M29.55,15.15l.64.13c.05-.24.13-.46.23-.63l-.56-.32c-.13.23-.24.52-.3.83Z"/>
    <rect class="cls-1" x="29.47" y="22.63" width=".65" height=".78"/>
    <rect class="cls-1" x="35.87" y="19.89" width=".65" height=".78"/>
    <rect class="cls-1" x="35.87" y="21.26" width=".65" height=".78"/>
    <path class="cls-1" d="M36.4,12.99l-.62.18c.06.22.1.45.1.68h.65c0-.3-.04-.58-.12-.86Z"/>
    <path class="cls-1" d="M35.58,12.7l.57-.31c-.15-.26-.33-.5-.54-.69l-.44.48c.16.15.3.33.41.53Z"/>
    <rect class="cls-1" x="35.87" y="22.63" width=".65" height=".78"/>
    <rect class="cls-1" x="35.87" y="18.53" width=".65" height=".78"/>
    <rect class="cls-1" x="35.87" y="14.43" width=".65" height=".78"/>
    <rect class="cls-1" x="35.87" y="17.16" width=".65" height=".78"/>
    <rect class="cls-1" x="35.87" y="15.8" width=".65" height=".78"/>
    <path class="cls-1" d="M33.7,11.79l-.21-.61c-.25.09-.51.23-.77.43l.39.52c.2-.15.4-.27.59-.33Z"/>
    <path class="cls-1" d="M35.06,11.3c-.28-.14-.57-.22-.88-.23l-.03.65c.21,0,.42.06.61.16l.29-.58Z"/>
    <rect class="cls-1" x="37.58" y="13.06" width=".65" height=".78"/>
    <rect class="cls-1" x="37.58" y="14.43" width=".65" height=".78"/>
    <rect class="cls-1" x="37.58" y="11.7" width=".65" height=".78"/>
    <path class="cls-1" d="M37.23,9.97l.57-.3c-.14-.26-.3-.49-.49-.7l-.48.44c.15.17.29.36.4.57Z"/>
    <rect class="cls-1" x="37.58" y="15.8" width=".65" height=".78"/>
    <path class="cls-1" d="M37.57,11.14l.65-.05c-.02-.28-.08-.57-.16-.84l-.62.2c.07.22.12.45.14.69Z"/>
    <rect class="cls-1" x="37.58" y="22.62" width=".65" height=".78"/>
    <rect class="cls-1" x="37.58" y="17.16" width=".65" height=".78"/>
    <rect class="cls-1" x="37.58" y="21.26" width=".65" height=".78"/>
    <rect class="cls-1" x="37.58" y="19.89" width=".65" height=".78"/>
    <rect class="cls-1" x="37.58" y="18.53" width=".65" height=".78"/>
    <path class="cls-1" d="M36.83,8.53c-.24-.18-.49-.31-.76-.41l-.22.61c.21.08.41.19.6.32l.39-.52Z"/>
    <path class="cls-1" d="M34.21,8.81l-.29-.58c-.24.12-.48.27-.71.45l.39.51c.2-.16.41-.28.6-.38Z"/>
    <path class="cls-1" d="M33.19,9.55l-.45-.47c-.19.18-.38.39-.56.6l.5.42c.16-.19.33-.37.51-.54Z"/>
    <path class="cls-1" d="M35.35,8.6l.08-.64c-.29-.03-.59-.03-.89.05l.15.63c.23-.05.44-.06.66-.03Z"/>
    <path class="cls-1" d="M32.87,14.46c.1-.1.17-.13.2-.13h0s.07,0,.11.03l.31-.57c-.13-.07-.27-.11-.42-.11h0c-.23,0-.45.11-.67.33l.46.45Z"/>
    <path class="cls-1" d="M33.67,15.29l.64-.13c-.06-.31-.17-.6-.3-.83l-.56.32c.1.17.18.39.23.63Z"/>
    <rect class="cls-1" x="33.74" y="21.26" width=".65" height=".78"/>
    <rect class="cls-1" x="33.74" y="22.63" width=".65" height=".78"/>
    <rect class="cls-1" x="33.74" y="17.17" width=".65" height=".78"/>
    <path class="cls-1" d="M34.39,15.94c0-.05,0-.1,0-.15l-.65.02s0,.08,0,.13v.64h.65v-.64Z"/>
    <rect class="cls-1" x="33.74" y="19.9" width=".65" height=".78"/>
    <rect class="cls-1" x="33.74" y="18.53" width=".65" height=".78"/>
  </g>
</svg>