<?xml version="1.0" encoding="UTF-8"?>
<svg id="Layer_1" data-name="Layer 1" xmlns="http://www.w3.org/2000/svg" viewBox="0 0 64.46 64.46">
  <defs>
    <style>
      .cls-1 {
        fill: #002a38;
      }

      .cls-2 {
        fill: #5b879e;
      }
    </style>
  </defs>
  <circle class="cls-2" cx="32.23" cy="32.23" r="32.23"/>
  <g>
    <path class="cls-1" d="M33.08,18.7l-11.51,14.09h-8.03v18.41h14.97v-9.47c0-2.2,2.02-3.98,4.52-3.98s4.52,1.78,4.52,3.98v9.47h15.07v-18.41h-8.19l-11.34-14.09ZM23.85,47.28h-6.19v-10.2h6.19v10.2ZM33.03,34.76c-2.22,0-4.01-1.58-4.01-3.54s1.8-3.54,4.01-3.54,4.01,1.58,4.01,3.54-1.8,3.54-4.01,3.54ZM48.73,47.28h-6.19v-10.2h6.19v10.2Z"/>
    <path class="cls-1" d="M54.48,14.76h-4.73v-2.25c0-.53-.49-.97-1.1-.97h-4.13c-.6,0-1.1.43-1.1.97v2.25h-6.48c-1.18-1.71-2.66-3.41-3.88-3.41s-2.63,1.7-3.73,3.41H11.67c-.6,0-1.1.43-1.1.97v13.64c0,.53.49.97,1.1.97h8.12l13.24-16.18,13,16.18h8.45c.6,0,1.1-.43,1.1-.97v-13.64c0-.53-.49-.97-1.1-.97Z"/>
  </g>
</svg>