<?xml version="1.0" encoding="UTF-8"?>
<svg id="Layer_1" data-name="Layer 1" xmlns="http://www.w3.org/2000/svg" viewBox="0 0 64.46 64.46">
  <defs>
    <style>
      .cls-1 {
        fill: #002a38;
      }

      .cls-2 {
        fill: #5b879e;
      }
    </style>
  </defs>
  <circle class="cls-2" cx="32.23" cy="32.23" r="32.23"/>
  <g>
    <path class="cls-1" d="M51.44,27.73c.58,0,1.05-.47,1.05-1.05v-1.99h1.23v-2.79l-21.49-14.22-21.49,14.14v2.88h1.31v1.99c0,.58.47,1.05,1.05,1.05h1.17v18.33h-1.17c-.58,0-1.05.47-1.05,1.05v1.1c-.73.04-1.31.65-1.31,1.39s.63,1.4,1.4,1.4h40.19c.77,0,1.4-.63,1.4-1.4,0-.71-.54-1.3-1.23-1.38v-1.11c0-.58-.47-1.05-1.05-1.05h-1.17v-18.33h1.17ZM45.67,46.06h-1.17c-.58,0-1.05.47-1.05,1.05v1.09h-22.36v-1.09c0-.58-.47-1.05-1.05-1.05h-1.17v-18.33h1.17c.58,0,1.05-.47,1.05-1.05v-1.99h22.36v1.99c0,.58.47,1.05,1.05,1.05h1.17v18.33Z"/>
    <path class="cls-1" d="M25.28,29.71v10.69c5.01,0,6,.66,6,.66v-10.69c-3.86-1.07-6-.66-6-.66Z"/>
    <path class="cls-1" d="M28.65,42.2c-2.47,0-5.51-.16-5.51-.16v-11.75h-1.56v13.15h9.21s.33-1.23-2.14-1.23Z"/>
    <path class="cls-1" d="M39.01,29.71s-2.14-.41-6,.66v10.69s.99-.66,6-.66v-10.69Z"/>
    <path class="cls-1" d="M41.15,42.04s-3.04.16-5.51.16-2.14,1.23-2.14,1.23h9.21v-13.15h-1.56v11.75Z"/>
  </g>
</svg>