<?xml version="1.0" encoding="UTF-8"?>
<svg id="Layer_1" data-name="Layer 1" xmlns="http://www.w3.org/2000/svg" viewBox="0 0 64.46 64.46">
  <defs>
    <style>
      .cls-1 {
        fill: #002a38;
      }

      .cls-2 {
        fill: #fff;
      }
    </style>
  </defs>
  <circle class="cls-2" cx="32.23" cy="32.23" r="32.23"/>
  <g>
    <path class="cls-1" d="M18.33,41.05h-1.86c-.1.3-.16.63-.16.97,0,1.67,1.35,3.02,3.02,3.02s3.02-1.35,3.02-3.02h-2.97l-1.04-.97Z"/>
    <path class="cls-1" d="M27.22,41.05l-.77.97h-3.1c0,1.67,1.35,3.02,3.02,3.02s3.02-1.35,3.02-3.02c0-.34-.06-.67-.16-.97h-2Z"/>
    <path class="cls-1" d="M45.66,41.05h-1.86c-.1.3-.16.63-.16.97,0,1.67,1.35,3.02,3.02,3.02s3.02-1.35,3.02-3.02h-2.97l-1.04-.97Z"/>
    <path class="cls-1" d="M54.55,41.05l-.77.97h-3.1c0,1.67,1.35,3.02,3.02,3.02s3.02-1.35,3.02-3.02c0-.34-.06-.67-.16-.97h-2Z"/>
    <path class="cls-1" d="M59.73,37.98c.02-.13.04-.26.04-.39v-13.52c0-1.22-1-2.21-2.21-2.21H6.83c-1.22,0-2.21,1-2.21,2.21v.26h0l-1.97,3.4h10.65v4.96H2.64v7.32h16.27l1.01.97h6.17l.74-.97h19.37l1.01.97h6.17l.74-.97h7.68v-2.01h-2.09ZM2.99,37.98v-4.61h.98v4.61h-.98ZM4.32,37.98v-4.61h.98v4.61h-.98ZM5.64,37.98v-4.61h.98v4.61h-.98ZM6.97,37.98v-4.61h.98v4.61h-.98ZM8.3,37.98v-4.61h.98v4.61h-.98ZM9.62,37.98v-4.61h.98v4.61h-.98ZM10.95,37.98v-4.61h.98v4.61h-.98ZM12.28,37.98v-4.61h1.01v4.22c0,.13.01.27.04.39h-1.05ZM23.35,31.95h-7.04v-4.99h7.04v4.99ZM27.34,26.95h7.04v4.99h-7.04v-4.99ZM40.66,35.52h-8.32v-1.11h8.32v1.11ZM45.62,31.95h-7.04v-4.99h7.04v4.99ZM56.72,31.95h-7.04v-4.99h7.04v4.99Z"/>
  </g>
</svg>