<?xml version="1.0" encoding="UTF-8"?>
<svg id="Layer_1" xmlns="http://www.w3.org/2000/svg" version="1.1" viewBox="0 0 70.6 226">
  <!-- Generator: Adobe Illustrator 29.5.1, SVG Export Plug-In . SVG Version: 2.1.0 Build 141)  -->
  <defs>
    <style>
      .st0 {
        fill: #002a38;
      }

      .st1 {
        fill: #f5efe7;
      }

      .st2 {
        isolation: isolate;
      }

      .st3 {
        fill: #bf9e6d;
      }
    </style>
  </defs>
  <polygon class="st1" points="35.3 0 43.2 24.4 68.8 24.4 48.1 39.4 56 63.8 35.3 48.8 14.6 63.8 22.5 39.4 1.7 24.4 27.4 24.4 35.3 0"/>
  <g>
    <path class="st0" d="M36,198.7v12.8s-4,5-5,5.5c-1,.5-7.3,7.3-7.3,6.3s-1.5-15.2,0-15.8,8.9-8.8,8.9-8.8l2-1.7,1.3,1.7h0Z"/>
    <polygon class="st0" points="35.3 66.2 36.8 97.6 34.7 99.6 26.2 93.6 33.9 66.2 35.3 66.2"/>
    <rect class="st0" x="1.7" y="115.4" width="67.1" height="67.1" rx="29.3" ry="29.3"/>
    <g>
      <g>
        <path class="st1" d="M34.9,59.8l-10.8,35.1c7.8,3.3,9.5,6.3,9.5,8.1v4c0,2.3-1.2,6.1-4.9,7.2-.4.1-.6.2-.8.3-15.9,3.4-27.8,17.6-27.8,34.5s11.9,31.1,27.8,34.5c.2,0,.5.2.8.3,3.7,1.1,4.9,5.1,4.9,7.2v4c0,2-.4,1.5-1.1,2.2-.7.7-5.8,5.4-8,7.7-2.2,2.3-1.6,4-1.6,4l-.3,17s1.8-.8,5.6-4.3c3.8-3.6,6.6-6,6.7-7.4,0,1.4,2.9,3.8,6.7,7.4,3.8,3.6,5.6,4.3,5.6,4.3l-.3-17s.7-1.7-1.6-4c-2.2-2.3-7.4-7.1-8-7.7-.7-.7-1.1-.2-1.1-2.2v-4c0-2.2,1.2-6.1,4.9-7.2h0c16.7-2.8,29.4-17.3,29.4-34.8s-12.7-32-29.4-34.8h0c-3.7-1.1-4.9-5.1-4.9-7.2v-4c0-1.8,1.7-4.8,9.5-8.1l-10.8-35.1h0ZM34.7,198.7v10.8c0,1.3-4.5,6.5-9.5,10.8v-10.3c0-1.1,2.4-4.3,9.5-11.3h0ZM35.3,116.8c.3,0,.6,0,1,0,17.4.5,31.3,14.7,31.3,32.2s-13.9,31.7-31.3,32.2c-.3,0-.6,0-1,0s-.6,0-.8,0h0c-.3,0-.6,0-.8,0-17-.9-30.5-15-30.5-32.2s13.5-31.3,30.5-32.2c.3,0,.6,0,.8,0h0c.3,0,.6,0,.8,0h0ZM27.7,93.1s3.9-15.4,7.1-24v28.4s-4-3.9-7.1-4.5Z"/>
        <circle class="st3" cx="35.3" cy="149.1" r="30.8"/>
      </g>
      <g class="st2">
        <g class="st2">
          <path class="st0" d="M19.9,136.6h.6c.5-.1.7-.2.7-.4v-3.8l-2.1-3.8c-.6-1-.8-1.3-1.4-1.4h-.3c0,0,0-.4,0-.4h5.3v.3s-.3,0-.3,0c-.9.1-1,.4-.7,1l1.9,3.5h0l1-1.9c1.2-2.2,1.2-2.5-.2-2.6h-.4c0,0,0-.4,0-.4h3.8v.3s-.5,0-.5,0c-.8.1-1.1.4-2.4,2.7l-1.2,2.1v4.2c0,.1,0,.2.8.3h.5c0,0,0,.3,0,.3h-5.3v-.3Z"/>
        </g>
        <g class="st2">
          <path class="st0" d="M27.8,131.9c0-3,2.6-5.2,5.7-5.2s5.5,2.1,5.5,5.2-2.6,5.2-5.7,5.2-5.5-2.1-5.5-5.2ZM36,131.9c0-3.3-1-4.9-2.7-4.9s-2.7,1.4-2.7,4.8,1,4.9,2.8,4.9,2.6-1.4,2.6-4.8Z"/>
          <path class="st0" d="M40.9,134v-6.5c0-.1,0-.2-.8-.2h-.4c0,0,0-.3,0-.3h5.2v.3s-.6,0-.6,0c-.5,0-.7.1-.7.3v5.8c0,1.8.9,2.8,2.5,2.8s2.7-.9,2.7-3.1v-4.4c0-1.1-.3-1.3-1.2-1.4h-.5c0,0,0-.3,0-.3h3.7v.3s-.5,0-.5,0c-.8,0-1,.4-1,1.5v4.4c0,2.6-1.3,4-4,4s-4.3-1.1-4.3-3.3Z"/>
        </g>
        <g class="st2">
          <path class="st0" d="M22,147.9l-.4,1.1c-.7,2.1-.8,2.3.5,2.5h.3s0,.3,0,.3h-3.6v-.3s.3,0,.3,0c1-.2,1.1-.3,2.1-2.8l1.9-5.2v-.6c.5-.2,1.4-.7,1.7-1.4h.4l2.9,8.2c.5,1.4.9,1.7,1.5,1.7h.4c0,0,0,.4,0,.4h-5.4v-.3s.4,0,.4,0c.8,0,.8-.4.4-1.4l-.7-2.1h-2.8ZM24.7,147.5l-1.2-3.5h0l-1.2,3.5h2.5Z"/>
          <path class="st0" d="M30.4,151.5h.6c.5-.1.7-.2.7-.4v-8.8c0-.1,0-.2-.8-.3h-.4c0,0,0-.3,0-.3h5.3c2.8,0,4.2.8,4.2,2.5s-.9,2.2-2.4,2.5l2,3.3c.7,1.1.9,1.4,1.5,1.5h.2s0,.3,0,.3h-3.8l-.3-.6-2.2-4.2c-.2,0-.5,0-.7-.1v4.3c0,.1,0,.2.8.3h.5c0,0,0,.3,0,.3h-5.3v-.3ZM37.1,144.3c0-1.4-.9-2.2-2.3-2.2h-.5v4.4c0,0,.4,0,.5,0,1.4,0,2.3-.8,2.3-2.2Z"/>
          <path class="st0" d="M41.7,151.5h.6c.5-.1.7-.2.7-.4v-8.8c0-.1,0-.2-.8-.3h-.4c0,0,0-.3,0-.3h8.9v3.5c0,0-.4,0-.4,0v-.4c-.7-2.2-1.9-2.7-3.7-2.7h-.9v4.4h.6c1,0,1.6-.5,1.9-1.3l.2-.6h.4l-.5,4.3h-.4s0-.6,0-.6c-.1-.9-.4-1.4-1.7-1.4h-.4s0,4.5,0,4.5h1.2c1.9,0,3.1-.8,3.7-2.6v-.4h.6l-.3,3.4h-9.2v-.3Z"/>
        </g>
        <g class="st2">
          <path class="st0" d="M13.8,166.4h.6c.5-.1.7-.2.7-.4v-8.8c0-.1,0-.2-.8-.3h-.4c0,0,0-.3,0-.3h5.2v.3s-.6,0-.6,0c-.5,0-.7.2-.7.3v4.1h3.9v-4.1c0-.1,0-.2-.8-.3h-.4c0,0,0-.3,0-.3h5.2v.3s-.6,0-.6,0c-.5,0-.7.2-.7.3v8.8c0,.1,0,.2.8.3h.4c0,0,0,.3,0,.3h-5.2v-.3s.6,0,.6,0c.5,0,.7-.2.7-.3v-4.3h-3.9v4.3c0,.1,0,.2.8.3h.4c0,0,0,.3,0,.3h-5.2v-.3Z"/>
          <path class="st0" d="M26,166.4h.6c.5-.1.7-.2.7-.4v-8.8c0-.1,0-.2-.8-.3h-.4c0,0,0-.3,0-.3h8.9v3.5c0,0-.4,0-.4,0v-.4c-.7-2.2-1.9-2.7-3.7-2.7h-.9v4.4h.6c1,0,1.6-.5,1.9-1.3l.2-.6h.4l-.5,4.3h-.4s0-.6,0-.6c-.1-.9-.4-1.4-1.7-1.4h-.4s0,4.5,0,4.5h1.2c1.9,0,3.1-.8,3.7-2.6v-.4h.6l-.3,3.4h-9.2v-.3Z"/>
          <path class="st0" d="M36.4,166.4h.6c.5-.1.7-.2.7-.4v-8.8c0-.1,0-.2-.8-.3h-.4c0,0,0-.3,0-.3h5.3c2.8,0,4.2.8,4.2,2.5s-.9,2.2-2.4,2.5l2,3.3c.7,1.1.9,1.4,1.5,1.5h.2s0,.3,0,.3h-3.8l-.3-.6-2.2-4.2c-.2,0-.5,0-.7-.1v4.3c0,.1,0,.2.8.3h.5c0,0,0,.3,0,.3h-5.3v-.3ZM43,159.2c0-1.4-.9-2.2-2.3-2.2h-.5v4.4c0,0,.4,0,.5,0,1.4,0,2.3-.8,2.3-2.2Z"/>
          <path class="st0" d="M47.6,166.4h.6c.5-.1.7-.2.7-.4v-8.8c0-.1,0-.2-.8-.3h-.4c0,0,0-.3,0-.3h8.9v3.5c0,0-.4,0-.4,0v-.4c-.7-2.2-1.9-2.7-3.7-2.7h-.9v4.4h.6c1,0,1.6-.5,1.9-1.3l.2-.6h.4l-.5,4.3h-.4s0-.6,0-.6c-.1-.9-.4-1.4-1.7-1.4h-.4s0,4.5,0,4.5h1.2c1.9,0,3.1-.8,3.7-2.6v-.4h.6l-.3,3.4h-9.2v-.3Z"/>
        </g>
      </g>
    </g>
  </g>
</svg>