<?xml version="1.0" encoding="UTF-8"?>
<svg id="Layer_1" data-name="Layer 1" xmlns="http://www.w3.org/2000/svg" viewBox="0 0 39.97 57.7">
  <defs>
    <style>
      .cls-1 {
        fill: #f5efe7;
      }
    </style>
  </defs>
  <path class="cls-1" d="M14.75.42C7.88,1.73,1.01,8.69.26,14.67c-1.82,14.53,6.37,21.45,12.83,32.41,1.36,2.31,3.71,10.85,6.51,10.62,3.87-1.46,4.64-6.96,6.84-10.61,3.59-5.96,10.75-14.19,12.61-20.49C43.62,11.06,30.47-2.59,14.75.42ZM33.14,23.27c-.77,5.54-7.84,15.32-11.33,20.03-1.46,1.97-2.64,2.03-4.26.15C12.28,33.51-.5,22,9.39,10.75c1.21-1.38,4.49-3.84,6.21-4.23,11.03-2.52,19.07,5.78,17.54,16.76Z"/>
  <circle class="cls-1" cx="19.53" cy="19.89" r="7.51"/>
</svg>